<svg xmlns="http://www.w3.org/2000/svg" width="1100" height="720" viewBox="0 0 1100 720">
  <style>
    .title { font: 700 24px Arial, sans-serif; fill: #1f2937; }
    .subtitle { font: 600 16px Arial, sans-serif; fill: #374151; }
    .axis { font: 12px Arial, sans-serif; fill: #4b5563; }
    .legend { font: 13px Arial, sans-serif; fill: #111827; }
    .metric { font: 12px Arial, sans-serif; fill: #111827; }
    .bg { fill: #f8fafc; }
  </style>
  <rect class="bg" width="1100" height="720" rx="18" />
  <text class="title" x="40" y="36">UDP reliable transport: AIMD vs Q-Learning</text>
  <text class="subtitle" x="40" y="74">CWND over time</text>
  <line x1="80" y1="50" x2="80" y2="390" stroke="#94a3b8" stroke-width="1.5" />
  <line x1="80" y1="390" x2="1060" y2="390" stroke="#94a3b8" stroke-width="1.5" />
  <polyline fill="none" stroke="#2563eb" stroke-width="3" points="80.00,344.67 80.03,299.33 88.19,276.67 95.62,258.53 103.03,242.90 110.45,228.93 117.86,216.17 125.28,204.35 132.70,193.28 139.90,182.83 147.53,172.91 152.25,281.46 154.95,262.52 155.98,326.26 162.37,294.02 162.44,342.01 169.78,299.19 170.69,344.59 176.63,299.33 193.03,344.67 199.46,344.67 206.86,299.33 214.29,276.67 229.97,333.33 236.53,344.67 243.95,299.33 251.22,276.67 267.56,333.33 273.62,344.67 281.03,299.33 288.46,276.67 304.19,333.33 310.70,344.67 318.13,299.33 325.53,276.67 342.00,333.33 347.79,344.67 355.21,299.33 362.62,276.67 378.57,333.33 384.18,344.67 391.82,299.33 399.05,276.67 414.82,333.33 421.25,344.67 428.74,299.33 436.78,276.67 452.34,333.33 458.89,344.67 466.46,299.33 473.50,276.67 490.00,333.33 495.92,344.67 503.07,299.33 510.48,276.67 526.62,333.33 532.99,344.67 540.63,299.33 547.67,276.67 563.89,333.33 569.63,344.67 577.27,299.33 584.50,276.67 600.87,333.33 607.38,344.67 614.16,299.33 622.21,276.67 637.73,333.33 644.47,344.67 651.48,299.33 658.66,276.67 674.82,333.33 681.56,344.67 688.64,299.33 696.38,276.67 712.36,333.33 717.98,344.67 725.48,299.33 733.47,276.67 749.14,333.33 755.72,344.67 763.13,299.33 770.33,276.67 786.85,333.33 792.73,344.67 800.23,299.33 807.28,276.67 823.59,333.33 829.45,344.67 836.63,299.33 844.72,276.67 860.24,333.33 866.98,344.67 874.38,299.33 881.81,276.67 897.93,333.33 903.55,344.67 911.47,299.33 918.89,276.67 935.02,333.33 940.68,344.67 948.56,299.33 955.40,276.67 971.72,333.33 977.83,344.67 985.64,299.33 993.08,276.67 1008.43,333.33 1014.68,344.67 1022.73,299.33 1030.16,276.67 1060.00,276.67" />
  <polyline fill="none" stroke="#dc2626" stroke-width="3" points="80.00,344.67 92.20,299.33 104.23,344.67 176.75,299.33 188.88,254.00 200.89,322.00 213.43,344.67 238.36,299.33 263.07,254.00 275.18,322.00 287.75,276.67 302.57,231.33 317.94,186.00 375.10,140.67 428.33,95.33 460.81,50.00 493.02,220.00 526.72,305.00 563.03,305.00" />
  <rect x="90" y="60" width="16" height="4" fill="#2563eb" />
  <text class="legend" x="114" y="66">AIMD</text>
  <rect x="180" y="60" width="16" height="4" fill="#dc2626" />
  <text class="legend" x="204" y="66">Q-Learning</text>
  <text class="axis" x="62" y="410">0</text>
  <text class="axis" x="1042" y="410">6.61s</text>
  <text class="axis" x="48" y="56">7.5</text>
  <text class="axis" x="56" y="390">0</text>

  <text class="subtitle" x="40" y="448">Average throughput and RTT</text>
  <line x1="80" y1="470" x2="80" y2="620" stroke="#94a3b8" stroke-width="1.5" />
  <line x1="80" y1="620" x2="1060" y2="620" stroke="#94a3b8" stroke-width="1.5" />
  <rect x="170.0" y="619.9" width="80" height="0.1" fill="#2563eb" rx="6" />
  <rect x="270.0" y="619.8" width="80" height="0.2" fill="#dc2626" rx="6" />
  <rect x="520.0" y="523.7" width="80" height="96.3" fill="#2563eb" rx="6" />
  <rect x="620.0" y="470.0" width="80" height="150.0" fill="#dc2626" rx="6" />
  <text class="axis" x="170" y="640">AIMD Mbps</text>
  <text class="axis" x="270" y="640">Q Mbps</text>
  <text class="axis" x="520" y="640">AIMD RTT</text>
  <text class="axis" x="620" y="640">Q RTT</text>
  <text class="metric" x="170" y="460">0.074 Mbps</text>
  <text class="metric" x="270" y="460">0.151 Mbps</text>
  <text class="metric" x="520" y="460">73.56 ms</text>
  <text class="metric" x="620" y="460">114.61 ms</text>
</svg>
