<svg xmlns="http://www.w3.org/2000/svg" width="1100" height="720" viewBox="0 0 1100 720">
  <style>
    .title { font: 700 24px Arial, sans-serif; fill: #1f2937; }
    .subtitle { font: 600 16px Arial, sans-serif; fill: #374151; }
    .axis { font: 12px Arial, sans-serif; fill: #4b5563; }
    .legend { font: 13px Arial, sans-serif; fill: #111827; }
    .metric { font: 12px Arial, sans-serif; fill: #111827; }
    .bg { fill: #f8fafc; }
  </style>
  <rect class="bg" width="1100" height="720" rx="18" />
  <text class="title" x="40" y="36">UDP reliable transport: AIMD vs Q-Learning</text>
  <text class="subtitle" x="40" y="74">CWND over time</text>
  <line x1="80" y1="50" x2="80" y2="390" stroke="#94a3b8" stroke-width="1.5" />
  <line x1="80" y1="390" x2="1060" y2="390" stroke="#94a3b8" stroke-width="1.5" />
  <polyline fill="none" stroke="#2563eb" stroke-width="3" points="80.00,352.81 80.19,315.62 90.92,297.03 102.00,282.15 111.47,269.33 121.34,257.87 130.63,247.40 141.10,237.70 150.74,228.62 160.54,220.05 169.88,211.91 178.90,204.15 190.25,196.71 199.67,189.55 208.08,182.65 219.81,175.98 229.02,169.52 238.54,163.25 248.84,157.15 256.95,151.21 268.76,145.42 278.04,139.76 287.41,134.24 297.88,128.83 305.92,123.53 317.73,118.34 327.04,113.25 336.33,108.26 346.91,103.35 354.86,98.52 366.78,93.78 376.02,89.11 385.98,84.51 395.77,79.98 403.96,75.52 415.74,71.13 425.03,66.79 434.95,62.51 444.75,58.29 454.64,54.12 463.87,50.00 661.02,50.00" />
  <polyline fill="none" stroke="#dc2626" stroke-width="3" points="80.00,352.81 159.83,315.62 403.35,278.43 661.60,278.43" />
  <rect x="90" y="60" width="16" height="4" fill="#2563eb" />
  <text class="legend" x="114" y="66">AIMD</text>
  <rect x="180" y="60" width="16" height="4" fill="#dc2626" />
  <text class="legend" x="204" y="66">Q-Learning</text>
  <text class="axis" x="62" y="410">0</text>
  <text class="axis" x="1042" y="410">1.00s</text>
  <text class="axis" x="48" y="56">9.1</text>
  <text class="axis" x="56" y="390">0</text>

  <text class="subtitle" x="40" y="448">Average throughput and RTT</text>
  <line x1="80" y1="470" x2="80" y2="620" stroke="#94a3b8" stroke-width="1.5" />
  <line x1="80" y1="620" x2="1060" y2="620" stroke="#94a3b8" stroke-width="1.5" />
  <rect x="170.0" y="618.7" width="80" height="1.3" fill="#2563eb" rx="6" />
  <rect x="270.0" y="618.7" width="80" height="1.3" fill="#dc2626" rx="6" />
  <rect x="520.0" y="470.0" width="80" height="150.0" fill="#2563eb" rx="6" />
  <rect x="620.0" y="588.8" width="80" height="31.2" fill="#dc2626" rx="6" />
  <text class="axis" x="170" y="640">AIMD Mbps</text>
  <text class="axis" x="270" y="640">Q Mbps</text>
  <text class="axis" x="520" y="640">AIMD RTT</text>
  <text class="axis" x="620" y="640">Q RTT</text>
  <text class="metric" x="170" y="460">0.553 Mbps</text>
  <text class="metric" x="270" y="460">0.552 Mbps</text>
  <text class="metric" x="520" y="460">64.08 ms</text>
  <text class="metric" x="620" y="460">13.33 ms</text>
</svg>
