<svg xmlns="http://www.w3.org/2000/svg" width="1100" height="720" viewBox="0 0 1100 720">
  <style>
    .title { font: 700 24px Arial, sans-serif; fill: #1f2937; }
    .subtitle { font: 600 16px Arial, sans-serif; fill: #374151; }
    .axis { font: 12px Arial, sans-serif; fill: #4b5563; }
    .legend { font: 13px Arial, sans-serif; fill: #111827; }
    .metric { font: 12px Arial, sans-serif; fill: #111827; }
    .bg { fill: #f8fafc; }
  </style>
  <rect class="bg" width="1100" height="720" rx="18" />
  <text class="title" x="40" y="36">UDP reliable transport: AIMD vs Q-Learning</text>
  <text class="subtitle" x="40" y="74">CWND over time</text>
  <line x1="80" y1="50" x2="80" y2="390" stroke="#94a3b8" stroke-width="1.5" />
  <line x1="80" y1="390" x2="1060" y2="390" stroke="#94a3b8" stroke-width="1.5" />
  <polyline fill="none" stroke="#2563eb" stroke-width="3" points="80.00,338.30 80.22,286.61 90.88,260.76 101.99,240.08 111.55,222.25 121.35,206.32 131.10,191.77 140.88,178.29 150.82,165.66 160.50,153.75 170.36,142.44 180.10,131.64 188.29,121.30 200.16,111.35 209.46,101.76 219.42,92.49 228.62,83.51 239.03,74.79 248.74,66.31 258.56,58.05 267.62,50.00 464.69,50.00" />
  <polyline fill="none" stroke="#dc2626" stroke-width="3" points="80.00,338.30 463.52,338.30" />
  <rect x="90" y="60" width="16" height="4" fill="#2563eb" />
  <text class="legend" x="114" y="66">AIMD</text>
  <rect x="180" y="60" width="16" height="4" fill="#dc2626" />
  <text class="legend" x="204" y="66">Q-Learning</text>
  <text class="axis" x="62" y="410">0</text>
  <text class="axis" x="1042" y="410">1.00s</text>
  <text class="axis" x="48" y="56">6.6</text>
  <text class="axis" x="56" y="390">0</text>

  <text class="subtitle" x="40" y="448">Average throughput and RTT</text>
  <line x1="80" y1="470" x2="80" y2="620" stroke="#94a3b8" stroke-width="1.5" />
  <line x1="80" y1="620" x2="1060" y2="620" stroke="#94a3b8" stroke-width="1.5" />
  <rect x="170.0" y="618.2" width="80" height="1.8" fill="#2563eb" rx="6" />
  <rect x="270.0" y="618.2" width="80" height="1.8" fill="#dc2626" rx="6" />
  <rect x="520.0" y="470.0" width="80" height="150.0" fill="#2563eb" rx="6" />
  <rect x="620.0" y="594.6" width="80" height="25.4" fill="#dc2626" rx="6" />
  <text class="axis" x="170" y="640">AIMD Mbps</text>
  <text class="axis" x="270" y="640">Q Mbps</text>
  <text class="axis" x="520" y="640">AIMD RTT</text>
  <text class="axis" x="620" y="640">Q RTT</text>
  <text class="metric" x="170" y="460">0.417 Mbps</text>
  <text class="metric" x="270" y="460">0.419 Mbps</text>
  <text class="metric" x="520" y="460">35.25 ms</text>
  <text class="metric" x="620" y="460">5.98 ms</text>
</svg>
